<svg xmlns="http://www.w3.org/2000/svg" width="1200" height="700" viewBox="0 0 1200 700">
  <defs>
    <marker id="arrow" markerWidth="12" markerHeight="12" refX="10" refY="6" orient="auto">
      <path d="M0,0 L12,6 L0,12 Z" fill="#2c2c2c" />
    </marker>
  </defs>
  <rect width="1200" height="700" fill="#fbfbfb" />
  <text x="600" y="80" font-family="Arial, sans-serif" font-size="30" fill="#1f2937" text-anchor="middle">Monolith vs Modular Monolith</text>

  <rect x="80" y="140" width="420" height="470" rx="18" fill="#f8fafc" stroke="#2c2c2c" stroke-width="3" />
  <text x="290" y="185" font-family="Arial, sans-serif" font-size="24" fill="#1f2937" text-anchor="middle">Monolith</text>
  <rect x="130" y="230" width="320" height="90" rx="10" fill="#ffffff" stroke="#64748b" stroke-width="2" />
  <rect x="130" y="340" width="320" height="90" rx="10" fill="#ffffff" stroke="#64748b" stroke-width="2" />
  <rect x="130" y="450" width="320" height="90" rx="10" fill="#ffffff" stroke="#64748b" stroke-width="2" />
  <text x="290" y="285" font-family="Arial, sans-serif" font-size="20" fill="#334155" text-anchor="middle">UI + API + Data</text>
  <text x="290" y="395" font-family="Arial, sans-serif" font-size="20" fill="#334155" text-anchor="middle">Shared State</text>
  <text x="290" y="505" font-family="Arial, sans-serif" font-size="20" fill="#334155" text-anchor="middle">Tight Coupling</text>

  <rect x="700" y="140" width="420" height="470" rx="18" fill="#f8fafc" stroke="#2c2c2c" stroke-width="3" />
  <text x="910" y="185" font-family="Arial, sans-serif" font-size="24" fill="#1f2937" text-anchor="middle">Modular Monolith</text>
  <rect x="740" y="230" width="150" height="120" rx="10" fill="#ffffff" stroke="#64748b" stroke-width="2" />
  <rect x="920" y="230" width="150" height="120" rx="10" fill="#ffffff" stroke="#64748b" stroke-width="2" />
  <rect x="740" y="380" width="150" height="120" rx="10" fill="#ffffff" stroke="#64748b" stroke-width="2" />
  <rect x="920" y="380" width="150" height="120" rx="10" fill="#ffffff" stroke="#64748b" stroke-width="2" />
  <text x="815" y="295" font-family="Arial, sans-serif" font-size="18" fill="#334155" text-anchor="middle">Billing</text>
  <text x="995" y="295" font-family="Arial, sans-serif" font-size="18" fill="#334155" text-anchor="middle">Catalog</text>
  <text x="815" y="445" font-family="Arial, sans-serif" font-size="18" fill="#334155" text-anchor="middle">Accounts</text>
  <text x="995" y="445" font-family="Arial, sans-serif" font-size="18" fill="#334155" text-anchor="middle">Search</text>
  <text x="910" y="545" font-family="Arial, sans-serif" font-size="18" fill="#475569" text-anchor="middle">Clear boundaries, shared runtime</text>

  <line x1="520" y1="375" x2="680" y2="375" stroke="#2c2c2c" stroke-width="3" marker-end="url(#arrow)" />
  <text x="600" y="355" font-family="Arial, sans-serif" font-size="18" fill="#475569" text-anchor="middle">Extract seams</text>
</svg>
