<svg xmlns="http://www.w3.org/2000/svg" width="1200" height="700" viewBox="0 0 1200 700">
  <defs>
    <marker id="arrow" markerWidth="12" markerHeight="12" refX="10" refY="6" orient="auto">
      <path d="M0,0 L12,6 L0,12 Z" fill="#2c2c2c" />
    </marker>
  </defs>
  <rect width="1200" height="700" fill="#fbfbfb" />
  <text x="600" y="80" font-family="Arial, sans-serif" font-size="30" fill="#1f2937" text-anchor="middle">Vector DB Retrieval Flow</text>

  <rect x="90" y="260" width="180" height="140" rx="12" fill="#ffffff" stroke="#2c2c2c" stroke-width="2" />
  <rect x="330" y="260" width="180" height="140" rx="12" fill="#ffffff" stroke="#2c2c2c" stroke-width="2" />
  <rect x="570" y="260" width="180" height="140" rx="12" fill="#ffffff" stroke="#2c2c2c" stroke-width="2" />
  <rect x="810" y="260" width="180" height="140" rx="12" fill="#ffffff" stroke="#2c2c2c" stroke-width="2" />

  <text x="180" y="335" font-family="Arial, sans-serif" font-size="20" fill="#334155" text-anchor="middle">App</text>
  <text x="420" y="335" font-family="Arial, sans-serif" font-size="20" fill="#334155" text-anchor="middle">Embedder</text>
  <text x="660" y="335" font-family="Arial, sans-serif" font-size="20" fill="#334155" text-anchor="middle">Vector DB</text>
  <text x="900" y="335" font-family="Arial, sans-serif" font-size="20" fill="#334155" text-anchor="middle">Retriever</text>

  <line x1="270" y1="330" x2="330" y2="330" stroke="#2c2c2c" stroke-width="3" marker-end="url(#arrow)" />
  <line x1="510" y1="330" x2="570" y2="330" stroke="#2c2c2c" stroke-width="3" marker-end="url(#arrow)" />
  <line x1="750" y1="330" x2="810" y2="330" stroke="#2c2c2c" stroke-width="3" marker-end="url(#arrow)" />

  <rect x="570" y="430" width="180" height="90" rx="12" fill="#f1f5f9" stroke="#64748b" stroke-width="2" />
  <text x="660" y="485" font-family="Arial, sans-serif" font-size="18" fill="#475569" text-anchor="middle">Metadata Store</text>
  <line x1="660" y1="400" x2="660" y2="430" stroke="#2c2c2c" stroke-width="2" marker-end="url(#arrow)" />
</svg>
